<?xml version="1.0" standalone="no"?><!DOCTYPE svg PUBLIC "-//W3C//DTD SVG 1.1//EN" "http://www.w3.org/Graphics/SVG/1.1/DTD/svg11.dtd"><svg t="1545120511478" class="icon" style="" viewBox="0 0 1024 1024" version="1.1" xmlns="http://www.w3.org/2000/svg" p-id="4684" xmlns:xlink="http://www.w3.org/1999/xlink" width="200" height="200"><defs><style type="text/css">@font-face { font-family: uc-nexus-iconfont; src: url("chrome-extension://pogijhnlcfmcppgimcaccdkmbedjkmhi/res/font_9qmmi8b8jsxxbt9.woff") format("woff"), url("chrome-extension://pogijhnlcfmcppgimcaccdkmbedjkmhi/res/font_9qmmi8b8jsxxbt9.ttf") format("truetype"); }
</style></defs><path d="M475.166605 109.73117c-123.583666-123.592876-297.639864 77.520561-297.639864 77.520561l-14.72333-35.873022-62.472843 25.339108 310.918285 765.979482 63.916729-20.825304-107.416452-261.848707s206.332299-159.841451 294.832935-71.338768c88.502683 88.50166 270.715655-41.647539 270.715655-41.647539l20.824281-499.789911c0 0.001023-363.772051 177.666422-478.955396 62.4841z m395.658272 395.657249S749.78515 613.414761 662.583089 526.214746c-87.201038-87.203084-323.465043 64.057945-323.465043 64.057945L200.791607 243.946988s152.298662-193.833637 274.374998-71.745021c89.153506 89.152483 416.482553-41.648562 416.482553-41.648562l-20.824281 374.835014z" p-id="4685" fill="#ffffff"></path></svg>